<?xml version="1.0" encoding="UTF-8"?>
<svg xmlns="http://www.w3.org/2000/svg" width="1280" height="640" viewBox="0 0 1280 640">
  <rect width="1280" height="640" fill="#28292F"/>

  <!-- Official Flama logo (flame + wordmark), centered -->
  <g transform="translate(340,112) scale(1.2)">
    <g>
      <path d="M203.25,23.29v8.23h-35.85v26.11h30.64v8.23h-30.64v32.1h-10.16V23.29h46.01Z" style="fill:#e74b1a;"/>
      <path d="M225.08,21.2V97.96h-9.28V21.2h9.28Z" style="fill:#e74b1a;"/>
      <path d="M280.21,97.96h-4.12c-.9,0-1.63-.14-2.19-.42-.56-.28-.92-.87-1.1-1.77l-1.04-4.9c-1.39,1.25-2.75,2.37-4.06,3.36-1.32,.99-2.71,1.82-4.17,2.5-1.46,.68-3.01,1.19-4.66,1.54-1.65,.35-3.48,.52-5.5,.52s-3.97-.29-5.76-.86-3.34-1.44-4.66-2.59c-1.32-1.15-2.37-2.61-3.15-4.37-.78-1.76-1.17-3.84-1.17-6.25,0-2.09,.57-4.1,1.72-6.04,1.15-1.93,3-3.65,5.55-5.15,2.55-1.5,5.9-2.73,10.03-3.69,4.13-.96,9.19-1.44,15.16-1.44v-4.14c0-4.12-.88-7.24-2.63-9.36-1.75-2.12-4.35-3.17-7.79-3.17-2.26,0-4.16,.29-5.71,.86-1.55,.57-2.88,1.22-4.01,1.93-1.13,.71-2.1,1.35-2.92,1.93-.82,.57-1.62,.86-2.42,.86-.63,0-1.17-.16-1.64-.49s-.84-.74-1.12-1.23l-1.67-2.97c2.92-2.81,6.06-4.92,9.43-6.31,3.37-1.39,7.1-2.08,11.2-2.08,2.95,0,5.58,.49,7.87,1.46,2.29,.97,4.22,2.33,5.78,4.06,1.56,1.74,2.74,3.84,3.54,6.31,.8,2.47,1.2,5.18,1.2,8.13v33.77Zm-24.08-5.68c1.63,0,3.13-.16,4.48-.49,1.36-.33,2.63-.8,3.83-1.41,1.2-.61,2.35-1.35,3.44-2.21,1.09-.87,2.16-1.86,3.2-2.97v-10.89c-4.27,0-7.9,.27-10.89,.81-2.99,.54-5.42,1.25-7.3,2.12-1.88,.87-3.24,1.91-4.09,3.09-.85,1.19-1.28,2.52-1.28,3.98s.23,2.6,.68,3.62,1.06,1.84,1.82,2.49c.76,.65,1.67,1.12,2.71,1.42s2.17,.45,3.39,.45Z" style="fill:#e74b1a;"/>
      <path d="M294.28,97.96V45.17h5.52c1.32,0,2.15,.64,2.5,1.93l.68,5.42c1.95-2.4,4.12-4.36,6.54-5.89,2.41-1.53,5.22-2.29,8.42-2.29,3.58,0,6.47,.99,8.68,2.97,2.21,1.98,3.8,4.66,4.77,8.02,.73-1.91,1.69-3.56,2.89-4.95,1.2-1.39,2.54-2.54,4.04-3.44,1.49-.9,3.08-1.56,4.77-1.98,1.68-.42,3.4-.63,5.13-.63,2.78,0,5.25,.44,7.43,1.33s4.01,2.18,5.52,3.88c1.51,1.7,2.67,3.8,3.47,6.28,.8,2.48,1.2,5.32,1.2,8.52v33.61h-9.28v-33.61c0-4.13-.9-7.27-2.71-9.41s-4.43-3.21-7.87-3.21c-1.53,0-2.98,.27-4.35,.81-1.37,.54-2.58,1.33-3.62,2.37-1.04,1.04-1.87,2.35-2.48,3.93-.61,1.58-.91,3.41-.91,5.5v33.61h-9.28v-33.61c0-4.24-.85-7.4-2.55-9.48-1.7-2.08-4.19-3.13-7.45-3.13-2.29,0-4.42,.62-6.38,1.85-1.96,1.23-3.76,2.91-5.39,5.03v39.34h-9.28Z" style="fill:#e74b1a;"/>
      <path d="M418.62,97.96h-4.12c-.9,0-1.63-.14-2.19-.42-.56-.28-.92-.87-1.1-1.77l-1.04-4.9c-1.39,1.25-2.75,2.37-4.06,3.36-1.32,.99-2.71,1.82-4.17,2.5-1.46,.68-3.01,1.19-4.66,1.54-1.65,.35-3.48,.52-5.5,.52s-3.97-.29-5.76-.86-3.34-1.44-4.66-2.59c-1.32-1.15-2.37-2.61-3.15-4.37-.78-1.76-1.17-3.84-1.17-6.25,0-2.09,.57-4.1,1.72-6.04,1.15-1.93,3-3.65,5.55-5.15,2.55-1.5,5.9-2.73,10.03-3.69,4.13-.96,9.19-1.44,15.16-1.44v-4.14c0-4.12-.88-7.24-2.63-9.36-1.75-2.12-4.35-3.17-7.79-3.17-2.26,0-4.16,.29-5.71,.86-1.55,.57-2.88,1.22-4.01,1.93-1.13,.71-2.1,1.35-2.92,1.93-.82,.57-1.62,.86-2.42,.86-.63,0-1.17-.16-1.64-.49s-.84-.74-1.12-1.23l-1.67-2.97c2.92-2.81,6.06-4.92,9.43-6.31,3.37-1.39,7.1-2.08,11.2-2.08,2.95,0,5.58,.49,7.87,1.46,2.29,.97,4.22,2.33,5.78,4.06,1.56,1.74,2.74,3.84,3.54,6.31,.8,2.47,1.2,5.18,1.2,8.13v33.77Zm-24.08-5.68c1.63,0,3.13-.16,4.48-.49,1.36-.33,2.63-.8,3.83-1.41,1.2-.61,2.35-1.35,3.44-2.21,1.09-.87,2.16-1.86,3.2-2.97v-10.89c-4.27,0-7.9,.27-10.89,.81-2.99,.54-5.42,1.25-7.3,2.12-1.88,.87-3.24,1.91-4.09,3.09-.85,1.19-1.28,2.52-1.28,3.98s.23,2.6,.68,3.62,1.06,1.84,1.82,2.49c.76,.65,1.67,1.12,2.71,1.42s2.17,.45,3.39,.45Z" style="fill:#e74b1a;"/>
    </g>
    <path d="M100.58,48.45c-.85-1.89-1.2-3.95-.99-6.1,.21-2.17,1.57-4.27,3.16-6.34,.08-.21,.99-1.41-.85-.7-.45,.09-1.92,.66-2.37,.79-3.87,1.17-5.2,3.57-6.3,7.99-.41,1.63-.38,3.42-.49,5.14-.13,2.04-.18,4.09-.3,6.14-.05,.8-.12,1.62-.33,2.38-1.13,4.03-5.17,6.69-8.75,5.81-2.91-.71-4.74-3.22-4.83-6.65-.04-1.58,.23-3.08,1.03-4.39,.58-.95,1.17-1.88,1.79-2.78,1.69-2.48,3.12-5.12,4.05-8.11,.59-1.88,.69-3.84,.73-5.8,.03-1.54,.09-3.12-.14-4.62-.6-3.94-2.04-7.53-4.06-10.74-2.38-3.77-5.4-6.82-8.64-9.58-4.92-3.9-.6,6.02-.54,9.83,.04,2.36,.04,4.7-.46,7-.79,3.65-2.51,6.68-4.69,9.4-2.48,3.1-5.3,5.78-8.12,8.43-3.36,3.15-6.74,6.26-9.76,9.87-3.29,3.94-5.87,8.39-7.33,13.64-.63,2.25-1.24,4.52-1.33,6.9-.09,2.4-.09,4.8-.09,7.2,0,.85,.04,1.72,.19,2.55,1.26,7.13,4.14,13.17,9.02,17.83,3.49,3.34,6.35,4.94,10.29,6.43-1.22-1.29-2.03-2.52-3.15-4.3-4.28-6.85-5.8-14.54-4.91-22.89,.39-3.7,1.36-7.21,2.72-10.59,1.77-4.41,2.38-6.04,5.47-9.72,2.61-3.8,2.76-1.21,2.7-.74-.46,3.29-.81,6.6-.56,9.94,.26,3.41,1.47,6.34,3.51,8.75,2.56,3.01,5.74,3.7,9.18,2.78,2.31-.61,4.61-1.03,6.98-.94,1.01,.04,2.02,0,2.99,.49,3.25,1.62,5.48,4.37,6.63,8.21,1.05,3.5,.93,7.1,.19,10.65-.59,2.82-2.39,6.2-4.4,8.38,1.2-.9,2.23-2.12,3.49-3.12,1.44-.97,5.58-5.06,8.73-8.73,14.14-14.48,1.78-46.97,.54-49.72Z" style="fill:#e15923;"/>
  </g>

  <g text-anchor="middle">
    <text x="640" y="364" font-family="'Lato Heavy', 'Lato', sans-serif" font-size="56" font-weight="800" fill="#A5A6B1">The production framework for</text>
    <text x="640" y="432" font-family="'Lato Heavy', 'Lato', sans-serif" font-size="56" font-weight="800" fill="#A5A6B1">Predictive and Generative AI</text>
    <text x="640" y="524" font-family="'SF Mono', 'Menlo', 'DejaVu Sans Mono', monospace" font-size="26" font-weight="600" letter-spacing="0.5" fill="#E25822">Light up your models</text>
  </g>
</svg>
